<?xml version="1.0" encoding="UTF-8"?>
<svg xmlns="http://www.w3.org/2000/svg" xmlns:xlink="http://www.w3.org/1999/xlink" viewBox="0 0 160 160" width="160px" height="160px">
<g id="surface35516071">
<path style=" stroke:none;fill-rule:nonzero;fill:rgb(94.509804%,76.862746%,5.882353%);fill-opacity:1;" d="M 70.707031 135.175781 L 70.210938 135.089844 C 67.097656 134.539062 63.976562 133.703125 60.9375 132.597656 L 60.464844 132.429688 L 43.117188 143.882812 L 44.359375 123.171875 L 43.976562 122.847656 C 41.515625 120.773438 39.21875 118.476562 37.15625 116.023438 L 36.832031 115.640625 L 16.121094 116.882812 L 27.574219 99.535156 L 27.398438 99.0625 C 26.296875 96.015625 25.457031 92.894531 24.910156 89.789062 L 24.820312 89.292969 L 6.234375 80 L 24.820312 70.707031 L 24.910156 70.210938 C 25.457031 67.101562 26.296875 63.980469 27.398438 60.9375 L 27.570312 60.464844 L 16.121094 43.117188 L 36.828125 44.363281 L 37.152344 43.976562 C 39.21875 41.523438 41.515625 39.226562 43.976562 37.152344 L 44.359375 36.828125 L 43.117188 16.117188 L 60.464844 27.570312 L 60.9375 27.402344 C 63.976562 26.296875 67.097656 25.460938 70.210938 24.910156 L 70.707031 24.824219 L 80 6.234375 L 89.292969 24.820312 L 89.789062 24.90625 C 92.902344 25.457031 96.023438 26.296875 99.0625 27.398438 L 99.535156 27.570312 L 116.882812 16.117188 L 115.640625 36.828125 L 116.023438 37.152344 C 118.484375 39.226562 120.78125 41.523438 122.84375 43.976562 L 123.167969 44.363281 L 143.878906 43.117188 L 132.425781 60.464844 L 132.597656 60.9375 C 133.699219 63.980469 134.539062 67.101562 135.085938 70.210938 L 135.175781 70.707031 L 153.765625 80 L 135.179688 89.292969 L 135.089844 89.789062 C 134.542969 92.894531 133.703125 96.015625 132.601562 99.0625 L 132.429688 99.535156 L 143.882812 116.882812 L 123.171875 115.636719 L 122.847656 116.023438 C 120.785156 118.472656 118.488281 120.769531 116.027344 122.847656 L 115.644531 123.171875 L 116.886719 143.878906 L 99.539062 132.425781 L 99.066406 132.597656 C 96.027344 133.699219 92.90625 134.539062 89.792969 135.089844 L 89.296875 135.175781 L 80 153.765625 Z M 70.707031 135.175781 "/>
<path style=" stroke:none;fill-rule:nonzero;fill:rgb(90.196079%,49.411765%,13.333334%);fill-opacity:1;" d="M 80 8.472656 L 88.175781 24.820312 L 88.625 25.71875 L 89.613281 25.894531 C 92.671875 26.4375 95.734375 27.257812 98.722656 28.34375 L 99.664062 28.683594 L 100.503906 28.128906 L 115.761719 18.054688 L 114.667969 36.269531 L 114.609375 37.273438 L 115.375 37.921875 C 117.789062 39.953125 120.042969 42.207031 122.078125 44.621094 L 122.722656 45.390625 L 123.726562 45.328125 L 141.941406 44.234375 L 131.867188 59.492188 L 131.3125 60.332031 L 131.652344 61.277344 C 132.734375 64.265625 133.558594 67.328125 134.101562 70.382812 L 134.277344 71.375 L 151.527344 80 L 135.179688 88.175781 L 134.28125 88.625 L 134.105469 89.613281 C 133.5625 92.671875 132.742188 95.734375 131.65625 98.71875 L 131.316406 99.664062 L 131.871094 100.503906 L 141.945312 115.761719 L 123.730469 114.667969 L 122.726562 114.609375 L 122.078125 115.375 C 120.050781 117.789062 117.792969 120.042969 115.378906 122.078125 L 114.609375 122.726562 L 114.671875 123.726562 L 115.765625 141.941406 L 100.507812 131.867188 L 99.667969 131.3125 L 98.722656 131.65625 C 95.734375 132.738281 92.671875 133.5625 89.613281 134.101562 L 88.625 134.277344 L 88.175781 135.179688 L 80 151.527344 L 71.824219 135.179688 L 71.375 134.28125 L 70.386719 134.105469 C 67.328125 133.5625 64.265625 132.738281 61.277344 131.65625 L 60.332031 131.316406 L 59.492188 131.871094 L 44.234375 141.945312 L 45.328125 123.730469 L 45.390625 122.726562 L 44.621094 122.078125 C 42.207031 120.046875 39.949219 117.789062 37.921875 115.378906 L 37.273438 114.609375 L 36.269531 114.671875 L 18.054688 115.765625 L 28.128906 100.507812 L 28.683594 99.667969 L 28.34375 98.722656 C 27.261719 95.734375 26.4375 92.671875 25.894531 89.617188 L 25.71875 88.625 L 24.820312 88.175781 L 8.472656 80 L 24.820312 71.824219 L 25.71875 71.375 L 25.894531 70.386719 C 26.4375 67.328125 27.257812 64.265625 28.34375 61.28125 L 28.683594 60.335938 L 28.128906 59.496094 L 18.054688 44.238281 L 36.269531 45.332031 L 37.273438 45.390625 L 37.917969 44.625 C 39.949219 42.207031 42.207031 39.953125 44.621094 37.921875 L 45.386719 37.277344 L 45.328125 36.273438 L 44.234375 18.058594 L 59.492188 28.132812 L 60.328125 28.6875 L 61.273438 28.34375 C 64.261719 27.261719 67.324219 26.4375 70.382812 25.898438 L 71.371094 25.722656 L 71.820312 24.820312 L 80 8.472656 M 80 4 L 70.039062 23.925781 C 66.785156 24.5 63.636719 25.359375 60.597656 26.460938 L 42 14.183594 L 43.335938 36.386719 C 40.824219 38.5 38.503906 40.820312 36.390625 43.332031 L 14.183594 42 L 26.460938 60.597656 C 25.359375 63.632812 24.5 66.78125 23.925781 70.039062 L 4 80 L 23.925781 89.960938 C 24.5 93.214844 25.359375 96.363281 26.460938 99.402344 L 14.183594 118 L 36.386719 116.667969 C 38.5 119.179688 40.824219 121.5 43.332031 123.613281 L 42 145.816406 L 60.597656 133.539062 C 63.632812 134.640625 66.785156 135.5 70.039062 136.074219 L 80 156 L 89.960938 136.074219 C 93.214844 135.5 96.363281 134.640625 99.402344 133.539062 L 118 145.816406 L 116.664062 123.613281 C 119.175781 121.5 121.496094 119.179688 123.609375 116.667969 L 145.816406 118 L 133.539062 99.402344 C 134.640625 96.367188 135.5 93.21875 136.074219 89.964844 L 156 80 L 136.074219 70.039062 C 135.5 66.785156 134.640625 63.636719 133.539062 60.597656 L 145.816406 42 L 123.613281 43.332031 C 121.5 40.820312 119.179688 38.5 116.667969 36.386719 L 118 14.183594 L 99.402344 26.460938 C 96.367188 25.359375 93.21875 24.5 89.960938 23.925781 Z M 80 4 "/>
<path style=" stroke:none;fill-rule:nonzero;fill:rgb(90.196079%,49.411765%,13.333334%);fill-opacity:1;" d="M 80 40 C 57.910156 40 40 57.910156 40 80 C 40 102.089844 57.910156 120 80 120 C 102.089844 120 120 102.089844 120 80 C 120 57.910156 102.089844 40 80 40 Z M 80 40 "/>
</g>
</svg>
